# xmcd
#
# Track frame offsets:
#	150
#	15575
#	29591
#	43537
#	59222
#	76329
#	93113
#	110245
#	126652
#	146706
#	160546
#	176264
#	192758
#	207453
#	223181
#	240080
#
# Disc length: 3424 seconds
#
# Revision: 0
# Processed by: cddbd v1.5.2PL0 Copyright (c) Steve Scherf et al.
# Submitted via: audiograbber 1.83.01
#
DISCID=e20d5e10
DTITLE=Jay en Lianie - Bonnie en Clyde
DYEAR=2012
DGENRE=Pop-Folk
TTITLE0=Bonnie en Clyde
TTITLE1=As Jy Sing
TTITLE2=Rug Teen die Muur
TTITLE3=Don't You Wanna Stay?
TTITLE4=Country Strong
TTITLE5=We Belong
TTITLE6=Toe Stop My Hart
TTITLE7=Alone
TTITLE8=One Last Kiss
TTITLE9=In a Moment Like This
TTITLE10=You're My First Love (Head Over Heels)
TTITLE11=Call My Name
TTITLE12=Lank Lewe die Liefde
TTITLE13=Melanie
TTITLE14=Jy Soen My Nie Meer Nie
TTITLE15=Lay Down Beside Me
EXTD=
EXTT0=
EXTT1=
EXTT2=
EXTT3=
EXTT4=
EXTT5=
EXTT6=
EXTT7=
EXTT8=
EXTT9=
EXTT10=
EXTT11=
EXTT12=
EXTT13=
EXTT14=
EXTT15=
PLAYORDER=
